<?xml version="1.0" encoding="UTF-8" standalone="no"?>
<!-- Created with Inkscape (http://www.inkscape.org/) -->

<svg
   xmlns:dc="http://purl.org/dc/elements/1.1/"
   xmlns:cc="http://creativecommons.org/ns#"
   xmlns:rdf="http://www.w3.org/1999/02/22-rdf-syntax-ns#"
   xmlns:svg="http://www.w3.org/2000/svg"
   xmlns="http://www.w3.org/2000/svg"
   xmlns:sodipodi="http://sodipodi.sourceforge.net/DTD/sodipodi-0.dtd"
   xmlns:inkscape="http://www.inkscape.org/namespaces/inkscape"
   width="548.04413"
   height="270.27054"
   id="svg3197"
   version="1.1"
   inkscape:version="0.48.4 r9939"
   sodipodi:docname="class-diagram.svg">
  <defs
     id="defs3199">
    <filter
       inkscape:collect="always"
       id="filter4162"
       color-interpolation-filters="sRGB">
      <feGaussianBlur
         inkscape:collect="always"
         stdDeviation="1.0431497"
         id="feGaussianBlur4164" />
    </filter>
    <filter
       inkscape:collect="always"
       id="filter4168"
       color-interpolation-filters="sRGB">
      <feGaussianBlur
         inkscape:collect="always"
         stdDeviation="0.78236228"
         id="feGaussianBlur4170" />
    </filter>
    <filter
       inkscape:collect="always"
       id="filter4174"
       color-interpolation-filters="sRGB">
      <feGaussianBlur
         inkscape:collect="always"
         stdDeviation="0.95834655"
         id="feGaussianBlur4176" />
    </filter>
    <filter
       inkscape:collect="always"
       id="filter4180"
       color-interpolation-filters="sRGB">
      <feGaussianBlur
         inkscape:collect="always"
         stdDeviation="0.95834632"
         id="feGaussianBlur4182" />
    </filter>
    <filter
       inkscape:collect="always"
       id="filter4186"
       color-interpolation-filters="sRGB">
      <feGaussianBlur
         inkscape:collect="always"
         stdDeviation="1.1511023"
         id="feGaussianBlur4188" />
    </filter>
    <filter
       inkscape:collect="always"
       id="filter4192"
       color-interpolation-filters="sRGB">
      <feGaussianBlur
         inkscape:collect="always"
         stdDeviation="0.95834655"
         id="feGaussianBlur4194" />
    </filter>
    <filter
       inkscape:collect="always"
       id="filter4198"
       color-interpolation-filters="sRGB">
      <feGaussianBlur
         inkscape:collect="always"
         stdDeviation="0.7807086"
         id="feGaussianBlur4200" />
    </filter>
    <filter
       inkscape:collect="always"
       id="filter4208"
       color-interpolation-filters="sRGB">
      <feGaussianBlur
         inkscape:collect="always"
         stdDeviation="1.6847243"
         id="feGaussianBlur4210" />
    </filter>
  </defs>
  <sodipodi:namedview
     id="base"
     pagecolor="#ffffff"
     bordercolor="#666666"
     borderopacity="1.0"
     inkscape:pageopacity="0.0"
     inkscape:pageshadow="2"
     inkscape:zoom="2.0682979"
     inkscape:cx="274.02206"
     inkscape:cy="135.13527"
     inkscape:document-units="px"
     inkscape:current-layer="layer1"
     showgrid="false"
     fit-margin-top="0"
     fit-margin-left="0"
     fit-margin-right="0"
     fit-margin-bottom="0"
     inkscape:window-width="1280"
     inkscape:window-height="778"
     inkscape:window-x="0"
     inkscape:window-y="22"
     inkscape:window-maximized="1" />
  <metadata
     id="metadata3202">
    <rdf:RDF>
      <cc:Work
         rdf:about="">
        <dc:format>image/svg+xml</dc:format>
        <dc:type
           rdf:resource="http://purl.org/dc/dcmitype/StillImage" />
      </cc:Work>
    </rdf:RDF>
  </metadata>
  <g
     inkscape:label="Layer 1"
     inkscape:groupmode="layer"
     id="layer1"
     transform="translate(-102.87796,-398.58656)">
    <path
       style="opacity:0.5;fill:#000000;stroke:none;filter:url(#filter4208)"
       inkscape:connector-curvature="0"
       id="path4202"
       d="m 160.84253,402.6299 184.09448,0 0,40.53543 -184.09448,0 z" />
    <path
       style="opacity:0.5;fill:#000000;stroke:none;filter:url(#filter4198)"
       inkscape:connector-curvature="0"
       id="path4196"
       d="m 105.37796,498.09446 63.55905,0 0,40.53543 -63.55905,0 z" />
    <path
       style="opacity:0.5;fill:#000000;stroke:none;filter:url(#filter4192)"
       inkscape:connector-curvature="0"
       id="path4190"
       d="m 208.84253,498.09446 87.24411,0 0,40.53543 -87.24411,0 z" />
    <path
       style="opacity:0.5;fill:#000000;stroke:none;filter:url(#filter4186)"
       inkscape:connector-curvature="0"
       id="path4184"
       d="m 313.37796,625.55903 112.94488,0 0,40.53543 -112.94488,0 z" />
    <path
       style="opacity:0.5;fill:#000000;stroke:none;filter:url(#filter4180)"
       inkscape:connector-curvature="0"
       id="path4178"
       d="m 561.37796,498.09446 87.24408,0 0,40.53543 -87.24408,0 z" />
    <path
       style="opacity:0.5;fill:#000000;stroke:none;filter:url(#filter4174)"
       inkscape:connector-curvature="0"
       id="path4172"
       d="m 433.37796,498.09446 87.24411,0 0,40.53543 -87.24411,0 z" />
    <path
       style="opacity:0.5;fill:#000000;stroke:none;filter:url(#filter4168)"
       inkscape:connector-curvature="0"
       id="path4166"
       d="m 393.37796,402.6299 63.77954,0 0,40.53543 -63.77954,0 z" />
    <path
       style="opacity:0.5;fill:#000000;stroke:none;filter:url(#filter4162)"
       inkscape:connector-curvature="0"
       id="path3380"
       d="m 497.37796,402.6299 63.77954,0 0,40.53543 -63.77954,0 z" />
    <path
       d="m 158.84253,400.6299 184.09448,0 0,40.53543 -184.09448,0 z"
       id="path13"
       inkscape:connector-curvature="0"
       style="fill:#ffffff;stroke:#000000;stroke-width:1;stroke-linecap:butt;stroke-linejoin:round" />
    <path
       d="m 171.10461,424.11428 0,-11.45313 1.51562,0 0,10.09375 5.64063,0 0,1.35938 -7.15625,0 z m 14.46094,-2.67188 1.45312,0.17188 q -0.34375,1.28125 -1.28125,1.98437 -0.92187,0.70313 -2.35937,0.70313 -1.82813,0 -2.89063,-1.125 -1.0625,-1.125 -1.0625,-3.14063 0,-2.09375 1.07813,-3.25 1.07812,-1.15625 2.79687,-1.15625 1.65625,0 2.70313,1.14063 1.0625,1.125 1.0625,3.17187 0,0.125 0,0.375 l -6.1875,0 q 0.0781,1.375 0.76562,2.10938 0.70313,0.71875 1.73438,0.71875 0.78125,0 1.32812,-0.40625 0.54688,-0.40625 0.85938,-1.29688 z m -4.60938,-2.28125 4.625,0 q -0.0937,-1.04687 -0.53125,-1.5625 -0.67187,-0.8125 -1.73437,-0.8125 -0.96875,0 -1.64063,0.65625 -0.65625,0.64063 -0.71875,1.71875 z m 7.57031,5.64063 1.375,0.20312 q 0.0781,0.64063 0.46875,0.92188 0.53125,0.39062 1.4375,0.39062 0.96875,0 1.5,-0.39062 0.53125,-0.39063 0.71875,-1.09375 0.10938,-0.42188 0.10938,-1.8125 -0.92188,1.09375 -2.29688,1.09375 -1.71875,0 -2.65625,-1.23438 -0.9375,-1.23437 -0.9375,-2.96875 0,-1.1875 0.42188,-2.1875 0.4375,-1 1.25,-1.54687 0.82812,-0.54688 1.92187,-0.54688 1.46875,0 2.42188,1.1875 l 0,-1 1.29687,0 0,7.17188 q 0,1.9375 -0.39062,2.75 -0.39063,0.8125 -1.25,1.28125 -0.85938,0.46875 -2.10938,0.46875 -1.48437,0 -2.40625,-0.67188 -0.90625,-0.67187 -0.875,-2.01562 z m 1.17188,-4.98438 q 0,1.625 0.64062,2.375 0.65625,0.75 1.625,0.75 0.96875,0 1.625,-0.73437 0.65625,-0.75 0.65625,-2.34375 0,-1.53125 -0.67187,-2.29688 -0.67188,-0.78125 -1.625,-0.78125 -0.9375,0 -1.59375,0.76563 -0.65625,0.76562 -0.65625,2.26562 z m 13.66406,1.625 1.45313,0.17188 q -0.34375,1.28125 -1.28125,1.98437 -0.92188,0.70313 -2.35938,0.70313 -1.82812,0 -2.89062,-1.125 -1.0625,-1.125 -1.0625,-3.14063 0,-2.09375 1.07812,-3.25 1.07813,-1.15625 2.79688,-1.15625 1.65625,0 2.70312,1.14063 1.0625,1.125 1.0625,3.17187 0,0.125 0,0.375 l -6.1875,0 q 0.0781,1.375 0.76563,2.10938 0.70312,0.71875 1.73437,0.71875 0.78125,0 1.32813,-0.40625 0.54687,-0.40625 0.85937,-1.29688 z m -4.60937,-2.28125 4.625,0 q -0.0937,-1.04687 -0.53125,-1.5625 -0.67188,-0.8125 -1.73438,-0.8125 -0.96875,0 -1.64062,0.65625 -0.65625,0.64063 -0.71875,1.71875 z m 7.83593,4.95313 0,-8.29688 1.25,0 0,1.15625 q 0.39063,-0.60937 1.03125,-0.96875 0.65625,-0.375 1.48438,-0.375 0.92187,0 1.51562,0.39063 0.59375,0.375 0.82813,1.0625 0.98437,-1.45313 2.5625,-1.45313 1.23437,0 1.89062,0.6875 0.67188,0.67188 0.67188,2.09375 l 0,5.70313 -1.39063,0 0,-5.23438 q 0,-0.84375 -0.14062,-1.20312 -0.14063,-0.375 -0.5,-0.59375 -0.35938,-0.23438 -0.84375,-0.23438 -0.875,0 -1.45313,0.57813 -0.57812,0.57812 -0.57812,1.85937 l 0,4.82813 -1.40625,0 0,-5.39063 q 0,-0.9375 -0.34375,-1.40625 -0.34375,-0.46875 -1.125,-0.46875 -0.59375,0 -1.09375,0.3125 -0.5,0.3125 -0.73438,0.92188 -0.21875,0.59375 -0.21875,1.71875 l 0,4.3125 -1.40625,0 z m 13.32813,-9.84375 0,-1.60938 1.40625,0 0,1.60938 -1.40625,0 z m 0,9.84375 0,-8.29688 1.40625,0 0,8.29688 -1.40625,0 z m 8.92969,0 0,-1.04688 q -0.78125,1.23438 -2.3125,1.23438 -1,0 -1.82813,-0.54688 -0.82812,-0.54687 -1.29687,-1.53125 -0.45313,-0.98437 -0.45313,-2.25 0,-1.25 0.40625,-2.25 0.42188,-1.01562 1.25,-1.54687 0.82813,-0.54688 1.85938,-0.54688 0.75,0 1.32812,0.3125 0.59375,0.3125 0.95313,0.82813 l 0,-4.10938 1.40625,0 0,11.45313 -1.3125,0 z m -4.4375,-4.14063 q 0,1.59375 0.67187,2.39063 0.67188,0.78125 1.57813,0.78125 0.92187,0 1.5625,-0.75 0.65625,-0.76563 0.65625,-2.3125 0,-1.70313 -0.65625,-2.5 -0.65625,-0.79688 -1.625,-0.79688 -0.9375,0 -1.5625,0.76563 -0.625,0.76562 -0.625,2.42187 z m 13.33593,4.14063 0,-1.04688 q -0.78125,1.23438 -2.3125,1.23438 -1,0 -1.82812,-0.54688 -0.82813,-0.54687 -1.29688,-1.53125 -0.45312,-0.98437 -0.45312,-2.25 0,-1.25 0.40625,-2.25 0.42187,-1.01562 1.25,-1.54687 0.82812,-0.54688 1.85937,-0.54688 0.75,0 1.32813,0.3125 0.59375,0.3125 0.95312,0.82813 l 0,-4.10938 1.40625,0 0,11.45313 -1.3125,0 z m -4.4375,-4.14063 q 0,1.59375 0.67188,2.39063 0.67187,0.78125 1.57812,0.78125 0.92188,0 1.5625,-0.75 0.65625,-0.76563 0.65625,-2.3125 0,-1.70313 -0.65625,-2.5 -0.65625,-0.79688 -1.625,-0.79688 -0.9375,0 -1.5625,0.76563 -0.625,0.76562 -0.625,2.42187 z m 13.63282,1.46875 1.45312,0.17188 q -0.34375,1.28125 -1.28125,1.98437 -0.92187,0.70313 -2.35937,0.70313 -1.82813,0 -2.89063,-1.125 -1.0625,-1.125 -1.0625,-3.14063 0,-2.09375 1.07813,-3.25 1.07812,-1.15625 2.79687,-1.15625 1.65625,0 2.70313,1.14063 1.0625,1.125 1.0625,3.17187 0,0.125 0,0.375 l -6.1875,0 q 0.0781,1.375 0.76562,2.10938 0.70313,0.71875 1.73438,0.71875 0.78125,0 1.32812,-0.40625 0.54688,-0.40625 0.85938,-1.29688 z m -4.60938,-2.28125 4.625,0 q -0.0937,-1.04687 -0.53125,-1.5625 -0.67187,-0.8125 -1.73437,-0.8125 -0.96875,0 -1.64063,0.65625 -0.65625,0.64063 -0.71875,1.71875 z m 7.80469,4.95313 0,-11.45313 1.40625,0 0,11.45313 -1.40625,0 z m 3.58594,0 0,-11.45313 1.40625,0 0,4.10938 q 0.98437,-1.14063 2.48437,-1.14063 0.92188,0 1.59375,0.35938 0.6875,0.35937 0.96875,1 0.29688,0.64062 0.29688,1.85937 l 0,5.26563 -1.40625,0 0,-5.26563 q 0,-1.04687 -0.45313,-1.53125 -0.45312,-0.48437 -1.29687,-0.48437 -0.625,0 -1.17188,0.32812 -0.54687,0.32813 -0.78125,0.89063 -0.23437,0.54687 -0.23437,1.51562 l 0,4.54688 -1.40625,0 z m 14.30468,-1.03125 q -0.78125,0.67187 -1.5,0.95312 -0.71875,0.26563 -1.54687,0.26563 -1.375,0 -2.10938,-0.67188 -0.73437,-0.67187 -0.73437,-1.70312 0,-0.60938 0.28125,-1.10938 0.28125,-0.51562 0.71875,-0.8125 0.45312,-0.3125 1.01562,-0.46875 0.42188,-0.10937 1.25,-0.20312 1.70313,-0.20313 2.51563,-0.48438 0,-0.29687 0,-0.375 0,-0.85937 -0.39063,-1.20312 -0.54687,-0.48438 -1.60937,-0.48438 -0.98438,0 -1.46875,0.35938 -0.46875,0.34375 -0.6875,1.21875 l -1.375,-0.1875 q 0.1875,-0.875 0.60937,-1.42188 0.4375,-0.54687 1.25,-0.82812 0.8125,-0.29688 1.875,-0.29688 1.0625,0 1.71875,0.25 0.67188,0.25 0.98438,0.625 0.3125,0.375 0.4375,0.95313 0.0781,0.35937 0.0781,1.29687 l 0,1.875 q 0,1.96875 0.0781,2.48438 0.0937,0.51562 0.35937,1 l -1.46875,0 q -0.21875,-0.4375 -0.28125,-1.03125 z m -0.10937,-3.14063 q -0.76563,0.3125 -2.29688,0.53125 -0.875,0.125 -1.23437,0.28125 -0.35938,0.15625 -0.5625,0.46875 -0.1875,0.29688 -0.1875,0.65625 0,0.5625 0.42187,0.9375 0.4375,0.375 1.25,0.375 0.8125,0 1.4375,-0.34375 0.64063,-0.35937 0.9375,-0.98437 0.23438,-0.46875 0.23438,-1.40625 l 0,-0.51563 z m -3.09375,-6.28125 q 0,-0.57812 0.42187,-0.98437 0.42188,-0.42188 0.98438,-0.42188 0.57812,0 0.98437,0.42188 0.42188,0.42187 0.42188,1.01562 0,0.59375 -0.42188,1.01563 -0.40625,0.40625 -0.96875,0.40625 -0.59375,0 -1.01562,-0.40625 -0.40625,-0.42188 -0.40625,-1.04688 z m 0.59375,0 q 0,0.375 0.25,0.625 0.25,0.25 0.57812,0.25 0.34375,0 0.57813,-0.25 0.25,-0.25 0.25,-0.60937 0,-0.34375 -0.25,-0.59375 -0.23438,-0.25 -0.57813,-0.25 -0.32812,0 -0.57812,0.25 -0.25,0.23437 -0.25,0.57812 z m 6.10156,10.45313 0,-8.29688 1.26563,0 0,1.17188 q 0.90625,-1.35938 2.64062,-1.35938 0.75,0 1.375,0.26563 0.625,0.26562 0.9375,0.70312 0.3125,0.4375 0.4375,1.04688 0.0781,0.39062 0.0781,1.35937 l 0,5.10938 -1.40625,0 0,-5.04688 q 0,-0.85937 -0.17188,-1.28125 -0.15625,-0.4375 -0.57812,-0.6875 -0.40625,-0.25 -0.96875,-0.25 -0.90625,0 -1.5625,0.57813 -0.64063,0.5625 -0.64063,2.15625 l 0,4.53125 -1.40625,0 z m 14.27344,0 0,-1.04688 q -0.78125,1.23438 -2.3125,1.23438 -1,0 -1.82813,-0.54688 -0.82812,-0.54687 -1.29687,-1.53125 -0.45313,-0.98437 -0.45313,-2.25 0,-1.25 0.40625,-2.25 0.42188,-1.01562 1.25,-1.54687 0.82813,-0.54688 1.85938,-0.54688 0.75,0 1.32812,0.3125 0.59375,0.3125 0.95313,0.82813 l 0,-4.10938 1.40625,0 0,11.45313 -1.3125,0 z m -4.4375,-4.14063 q 0,1.59375 0.67187,2.39063 0.67188,0.78125 1.57813,0.78125 0.92187,0 1.5625,-0.75 0.65625,-0.76563 0.65625,-2.3125 0,-1.70313 -0.65625,-2.5 -0.65625,-0.79688 -1.625,-0.79688 -0.9375,0 -1.5625,0.76563 -0.625,0.76562 -0.625,2.42187 z m 9.25781,4.14063 -1.3125,0 0,-11.45313 1.40625,0 0,4.07813 q 0.89063,-1.10938 2.28125,-1.10938 0.76563,0 1.4375,0.3125 0.6875,0.29688 1.125,0.85938 0.45313,0.5625 0.70313,1.35937 0.25,0.78125 0.25,1.67188 0,2.14062 -1.0625,3.3125 -1.04688,1.15625 -2.53125,1.15625 -1.46875,0 -2.29688,-1.23438 l 0,1.04688 z m -0.0156,-4.21875 q 0,1.5 0.40625,2.15625 0.65625,1.09375 1.79687,1.09375 0.92188,0 1.59375,-0.79688 0.67188,-0.8125 0.67188,-2.39062 0,-1.625 -0.65625,-2.39063 -0.64063,-0.78125 -1.54688,-0.78125 -0.92187,0 -1.59375,0.79688 -0.67187,0.79687 -0.67187,2.3125 z m 7.08593,0.0625 q 0,-2.29688 1.28125,-3.40625 1.07813,-0.92188 2.60938,-0.92188 1.71875,0 2.79687,1.125 1.09375,1.10938 1.09375,3.09375 0,1.59375 -0.48437,2.51563 -0.48438,0.92187 -1.40625,1.4375 -0.90625,0.5 -2,0.5 -1.73438,0 -2.8125,-1.10938 -1.07813,-1.125 -1.07813,-3.23437 z m 1.45313,0 q 0,1.59375 0.6875,2.39062 0.70312,0.79688 1.75,0.79688 1.04687,0 1.73437,-0.79688 0.70313,-0.79687 0.70313,-2.4375 0,-1.53125 -0.70313,-2.32812 -0.6875,-0.79688 -1.73437,-0.79688 -1.04688,0 -1.75,0.79688 -0.6875,0.78125 -0.6875,2.375 z m 7.97656,4.15625 0,-11.45313 1.40625,0 0,6.53125 3.32813,-3.375 1.82812,0 -3.17187,3.07813 3.48437,5.21875 -1.73437,0 -2.73438,-4.25 -1,0.95312 0,3.29688 -1.40625,0 z m 13.67188,-2.67188 1.45312,0.17188 q -0.34375,1.28125 -1.28125,1.98437 -0.92187,0.70313 -2.35937,0.70313 -1.82813,0 -2.89063,-1.125 -1.0625,-1.125 -1.0625,-3.14063 0,-2.09375 1.07813,-3.25 1.07812,-1.15625 2.79687,-1.15625 1.65625,0 2.70313,1.14063 1.0625,1.125 1.0625,3.17187 0,0.125 0,0.375 l -6.1875,0 q 0.0781,1.375 0.76562,2.10938 0.70313,0.71875 1.73438,0.71875 0.78125,0 1.32812,-0.40625 0.54688,-0.40625 0.85938,-1.29688 z m -4.60938,-2.28125 4.625,0 q -0.0937,-1.04687 -0.53125,-1.5625 -0.67187,-0.8125 -1.73437,-0.8125 -0.96875,0 -1.64063,0.65625 -0.65625,0.64063 -0.71875,1.71875 z m 7.83594,4.95313 0,-8.29688 1.26562,0 0,1.17188 q 0.90625,-1.35938 2.64063,-1.35938 0.75,0 1.375,0.26563 0.625,0.26562 0.9375,0.70312 0.3125,0.4375 0.4375,1.04688 0.0781,0.39062 0.0781,1.35937 l 0,5.10938 -1.40625,0 0,-5.04688 q 0,-0.85937 -0.17187,-1.28125 -0.15625,-0.4375 -0.57813,-0.6875 -0.40625,-0.25 -0.96875,-0.25 -0.90625,0 -1.5625,0.57813 -0.64062,0.5625 -0.64062,2.15625 l 0,4.53125 -1.40625,0 z"
       id="path15"
       inkscape:connector-curvature="0"
       style="fill:#000000;fill-rule:nonzero;stroke:none" />
    <path
       d="m 391.37796,400.6299 63.77954,0 0,40.53543 -63.77954,0 z"
       id="path19"
       inkscape:connector-curvature="0"
       style="fill:#ffffff;stroke:#000000;stroke-width:1;stroke-linecap:butt;stroke-linejoin:round" />
    <path
       d="m 402.97476,424.11428 0,-11.45313 1.51562,0 0,11.45313 -1.51562,0 z m 9.41406,-3.04688 1.39063,0.1875 q -0.23438,1.42188 -1.17188,2.23438 -0.92187,0.8125 -2.28125,0.8125 -1.70312,0 -2.75,-1.10938 -1.03125,-1.125 -1.03125,-3.20312 0,-1.34375 0.4375,-2.34375 0.45313,-1.01563 1.35938,-1.51563 0.92187,-0.5 1.98437,-0.5 1.35938,0 2.21875,0.6875 0.85938,0.67188 1.09375,1.9375 l -1.35937,0.20313 q -0.20313,-0.82813 -0.70313,-1.25 -0.48437,-0.42188 -1.1875,-0.42188 -1.0625,0 -1.73437,0.76563 -0.65625,0.75 -0.65625,2.40625 0,1.67187 0.64062,2.4375 0.64063,0.75 1.67188,0.75 0.82812,0 1.375,-0.5 0.5625,-0.51563 0.70312,-1.57813 z m 7.96875,3.04688 0,-1.04688 q -0.78125,1.23438 -2.3125,1.23438 -1,0 -1.82812,-0.54688 -0.82813,-0.54687 -1.29688,-1.53125 -0.45312,-0.98437 -0.45312,-2.25 0,-1.25 0.40625,-2.25 0.42187,-1.01562 1.25,-1.54687 0.82812,-0.54688 1.85937,-0.54688 0.75,0 1.32813,0.3125 0.59375,0.3125 0.95312,0.82813 l 0,-4.10938 1.40625,0 0,11.45313 -1.3125,0 z m -4.4375,-4.14063 q 0,1.59375 0.67188,2.39063 0.67187,0.78125 1.57812,0.78125 0.92188,0 1.5625,-0.75 0.65625,-0.76563 0.65625,-2.3125 0,-1.70313 -0.65625,-2.5 -0.65625,-0.79688 -1.625,-0.79688 -0.9375,0 -1.5625,0.76563 -0.625,0.76562 -0.625,2.42187 z m 17.3125,4.14063 -1.40625,0 0,-8.96875 q -0.51562,0.48437 -1.34375,0.96875 -0.8125,0.48437 -1.46875,0.73437 l 0,-1.35937 q 1.17188,-0.5625 2.04688,-1.34375 0.89062,-0.79688 1.26562,-1.53125 l 0.90625,0 0,11.5 z m 3.60156,-5.65625 q 0,-2.03125 0.40625,-3.26563 0.42188,-1.23437 1.25,-1.90625 0.82813,-0.67187 2.07813,-0.67187 0.92187,0 1.60937,0.375 0.70313,0.35937 1.15625,1.0625 0.45313,0.70312 0.70313,1.70312 0.26562,1 0.26562,2.70313 0,2.01562 -0.42187,3.26562 -0.40625,1.23438 -1.23438,1.92188 -0.82812,0.67187 -2.07812,0.67187 -1.65625,0 -2.60938,-1.20312 -1.125,-1.42188 -1.125,-4.65625 z m 1.4375,0 q 0,2.82812 0.65625,3.76562 0.67188,0.92188 1.64063,0.92188 0.96875,0 1.625,-0.9375 0.65625,-0.9375 0.65625,-3.75 0,-2.82813 -0.65625,-3.75 -0.65625,-0.9375 -1.64063,-0.9375 -0.96875,0 -1.54687,0.82812 -0.73438,1.04688 -0.73438,3.85938 z"
       id="path21"
       inkscape:connector-curvature="0"
       style="fill:#000000;fill-rule:nonzero;stroke:none" />
    <path
       d="m 495.37796,400.6299 63.77954,0 0,40.53543 -63.77954,0 z"
       id="path25"
       inkscape:connector-curvature="0"
       style="fill:#ffffff;stroke:#000000;stroke-width:1;stroke-linecap:butt;stroke-linejoin:round" />
    <path
       d="m 515.67789,424.11428 4.40625,-11.45313 1.64063,0 4.6875,11.45313 -1.73438,0 -1.32812,-3.46875 -4.79688,0 -1.25,3.46875 -1.625,0 z m 3.3125,-4.70313 3.89063,0 -1.20313,-3.17187 q -0.54687,-1.45313 -0.8125,-2.375 -0.21875,1.09375 -0.60937,2.1875 l -1.26563,3.35937 z m 11.51563,3.4375 0.20312,1.25 q -0.59375,0.125 -1.0625,0.125 -0.76562,0 -1.1875,-0.23437 -0.42187,-0.25 -0.59375,-0.64063 -0.17187,-0.40625 -0.17187,-1.67187 l 0,-4.76563 -1.03125,0 0,-1.09375 1.03125,0 0,-2.0625 1.40625,-0.84375 0,2.90625 1.40625,0 0,1.09375 -1.40625,0 0,4.84375 q 0,0.60938 0.0625,0.78125 0.0781,0.17188 0.25,0.28125 0.17187,0.0937 0.48437,0.0937 0.23438,0 0.60938,-0.0625 z m 6.78906,-1.78125 1.39062,0.1875 q -0.23437,1.42188 -1.17187,2.23438 -0.92188,0.8125 -2.28125,0.8125 -1.70313,0 -2.75,-1.10938 -1.03125,-1.125 -1.03125,-3.20312 0,-1.34375 0.4375,-2.34375 0.45312,-1.01563 1.35937,-1.51563 0.92188,-0.5 1.98438,-0.5 1.35937,0 2.21875,0.6875 0.85937,0.67188 1.09375,1.9375 l -1.35938,0.20313 q -0.20312,-0.82813 -0.70312,-1.25 -0.48438,-0.42188 -1.1875,-0.42188 -1.0625,0 -1.73438,0.76563 -0.65625,0.75 -0.65625,2.40625 0,1.67187 0.64063,2.4375 0.64062,0.75 1.67187,0.75 0.82813,0 1.375,-0.5 0.5625,-0.51563 0.70313,-1.57813 z"
       id="path27"
       inkscape:connector-curvature="0"
       style="fill:#000000;fill-rule:nonzero;stroke:none" />
    <path
       d="m 206.84253,496.09446 87.24411,0 0,40.53543 -87.24411,0 z"
       id="path31"
       inkscape:connector-curvature="0"
       style="fill:#ffffff;stroke:#000000;stroke-width:1;stroke-linecap:butt;stroke-linejoin:round" />
    <path
       d="m 228.13644,519.57883 0,-11.45313 4.32812,0 q 1.14063,0 1.73438,0.10938 0.84375,0.14062 1.40625,0.53125 0.57812,0.39062 0.92187,1.10937 0.35938,0.70313 0.35938,1.5625 0,1.45313 -0.9375,2.46875 -0.92188,1.01563 -3.35938,1.01563 l -2.9375,0 0,4.65625 -1.51562,0 z m 1.51562,-6.01563 2.96875,0 q 1.46875,0 2.07813,-0.54687 0.625,-0.54688 0.625,-1.53125 0,-0.71875 -0.375,-1.23438 -0.35938,-0.51562 -0.95313,-0.67187 -0.375,-0.10938 -1.40625,-0.10938 l -2.9375,0 0,4.09375 z m 14.39063,4.98438 q -0.78125,0.67187 -1.5,0.95312 -0.71875,0.26563 -1.54688,0.26563 -1.375,0 -2.10937,-0.67188 -0.73438,-0.67187 -0.73438,-1.70312 0,-0.60938 0.28125,-1.10938 0.28125,-0.51562 0.71875,-0.8125 0.45313,-0.3125 1.01563,-0.46875 0.42187,-0.10937 1.25,-0.20312 1.70312,-0.20313 2.51562,-0.48438 0,-0.29687 0,-0.375 0,-0.85937 -0.39062,-1.20312 -0.54688,-0.48438 -1.60938,-0.48438 -0.98437,0 -1.46875,0.35938 -0.46875,0.34375 -0.6875,1.21875 l -1.375,-0.1875 q 0.1875,-0.875 0.60938,-1.42188 0.4375,-0.54687 1.25,-0.82812 0.8125,-0.29688 1.875,-0.29688 1.0625,0 1.71875,0.25 0.67187,0.25 0.98437,0.625 0.3125,0.375 0.4375,0.95313 0.0781,0.35937 0.0781,1.29687 l 0,1.875 q 0,1.96875 0.0781,2.48438 0.0937,0.51562 0.35938,1 l -1.46875,0 q -0.21875,-0.4375 -0.28125,-1.03125 z m -0.10938,-3.14063 q -0.76562,0.3125 -2.29687,0.53125 -0.875,0.125 -1.23438,0.28125 -0.35937,0.15625 -0.5625,0.46875 -0.1875,0.29688 -0.1875,0.65625 0,0.5625 0.42188,0.9375 0.4375,0.375 1.25,0.375 0.8125,0 1.4375,-0.34375 0.64062,-0.35937 0.9375,-0.98437 0.23437,-0.46875 0.23437,-1.40625 l 0,-0.51563 z m 3.58594,4.17188 0,-8.29688 1.26563,0 0,1.25 q 0.48437,-0.875 0.89062,-1.15625 0.40625,-0.28125 0.90625,-0.28125 0.70313,0 1.4375,0.45313 l -0.48437,1.29687 q -0.51563,-0.29687 -1.03125,-0.29687 -0.45313,0 -0.82813,0.28125 -0.35937,0.26562 -0.51562,0.76562 -0.23438,0.75 -0.23438,1.64063 l 0,4.34375 -1.40625,0 z m 4.78125,-2.48438 1.39063,-0.21875 q 0.10937,0.84375 0.64062,1.29688 0.54688,0.4375 1.5,0.4375 0.96875,0 1.4375,-0.39063 0.46875,-0.40625 0.46875,-0.9375 0,-0.46875 -0.40625,-0.75 -0.29687,-0.1875 -1.4375,-0.46875 -1.54687,-0.39062 -2.15625,-0.67187 -0.59375,-0.29688 -0.90625,-0.79688 -0.29687,-0.5 -0.29687,-1.10937 0,-0.5625 0.25,-1.03125 0.25,-0.46875 0.6875,-0.78125 0.32812,-0.25 0.89062,-0.40625 0.57813,-0.17188 1.21875,-0.17188 0.98438,0 1.71875,0.28125 0.73438,0.28125 1.07813,0.76563 0.35937,0.46875 0.5,1.28125 l -1.375,0.1875 q -0.0937,-0.64063 -0.54688,-1 -0.45312,-0.35938 -1.26562,-0.35938 -0.96875,0 -1.39063,0.32813 -0.40625,0.3125 -0.40625,0.73437 0,0.28125 0.17188,0.5 0.17187,0.21875 0.53125,0.375 0.21875,0.0781 1.25,0.35938 1.48437,0.39062 2.07812,0.65625 0.59375,0.25 0.92188,0.73437 0.34375,0.48438 0.34375,1.20313 0,0.70312 -0.42188,1.32812 -0.40625,0.60938 -1.1875,0.95313 -0.76562,0.34375 -1.73437,0.34375 -1.625,0 -2.46875,-0.67188 -0.84375,-0.67187 -1.07813,-2 z m 14.23438,-0.1875 1.45312,0.17188 q -0.34375,1.28125 -1.28125,1.98437 -0.92187,0.70313 -2.35937,0.70313 -1.82813,0 -2.89063,-1.125 -1.0625,-1.125 -1.0625,-3.14063 0,-2.09375 1.07813,-3.25 1.07812,-1.15625 2.79687,-1.15625 1.65625,0 2.70313,1.14063 1.0625,1.125 1.0625,3.17187 0,0.125 0,0.375 l -6.1875,0 q 0.0781,1.375 0.76562,2.10938 0.70313,0.71875 1.73438,0.71875 0.78125,0 1.32812,-0.40625 0.54688,-0.40625 0.85938,-1.29688 z m -4.60938,-2.28125 4.625,0 q -0.0937,-1.04687 -0.53125,-1.5625 -0.67187,-0.8125 -1.73437,-0.8125 -0.96875,0 -1.64063,0.65625 -0.65625,0.64063 -0.71875,1.71875 z m 7.82031,4.95313 0,-8.29688 1.26563,0 0,1.25 q 0.48437,-0.875 0.89062,-1.15625 0.40625,-0.28125 0.90625,-0.28125 0.70313,0 1.4375,0.45313 l -0.48437,1.29687 q -0.51563,-0.29687 -1.03125,-0.29687 -0.45313,0 -0.82813,0.28125 -0.35937,0.26562 -0.51562,0.76562 -0.23438,0.75 -0.23438,1.64063 l 0,4.34375 -1.40625,0 z"
       id="path33"
       inkscape:connector-curvature="0"
       style="fill:#000000;fill-rule:nonzero;stroke:none" />
    <path
       d="m 431.37796,496.09446 87.24411,0 0,40.53543 -87.24411,0 z"
       id="path37"
       inkscape:connector-curvature="0"
       style="fill:#ffffff;stroke:#000000;stroke-width:1;stroke-linecap:butt;stroke-linejoin:round" />
    <path
       d="m 452.67186,519.57883 0,-11.45313 4.32812,0 q 1.14063,0 1.73438,0.10938 0.84375,0.14062 1.40625,0.53125 0.57812,0.39062 0.92187,1.10937 0.35938,0.70313 0.35938,1.5625 0,1.45313 -0.9375,2.46875 -0.92188,1.01563 -3.35938,1.01563 l -2.9375,0 0,4.65625 -1.51562,0 z m 1.51562,-6.01563 2.96875,0 q 1.46875,0 2.07813,-0.54687 0.625,-0.54688 0.625,-1.53125 0,-0.71875 -0.375,-1.23438 -0.35938,-0.51562 -0.95313,-0.67187 -0.375,-0.10938 -1.40625,-0.10938 l -2.9375,0 0,4.09375 z m 14.39063,4.98438 q -0.78125,0.67187 -1.5,0.95312 -0.71875,0.26563 -1.54688,0.26563 -1.375,0 -2.10937,-0.67188 -0.73438,-0.67187 -0.73438,-1.70312 0,-0.60938 0.28125,-1.10938 0.28125,-0.51562 0.71875,-0.8125 0.45313,-0.3125 1.01563,-0.46875 0.42187,-0.10937 1.25,-0.20312 1.70312,-0.20313 2.51562,-0.48438 0,-0.29687 0,-0.375 0,-0.85937 -0.39062,-1.20312 -0.54688,-0.48438 -1.60938,-0.48438 -0.98437,0 -1.46875,0.35938 -0.46875,0.34375 -0.6875,1.21875 l -1.375,-0.1875 q 0.1875,-0.875 0.60938,-1.42188 0.4375,-0.54687 1.25,-0.82812 0.8125,-0.29688 1.875,-0.29688 1.0625,0 1.71875,0.25 0.67187,0.25 0.98437,0.625 0.3125,0.375 0.4375,0.95313 0.0781,0.35937 0.0781,1.29687 l 0,1.875 q 0,1.96875 0.0781,2.48438 0.0937,0.51562 0.35938,1 l -1.46875,0 q -0.21875,-0.4375 -0.28125,-1.03125 z m -0.10938,-3.14063 q -0.76562,0.3125 -2.29687,0.53125 -0.875,0.125 -1.23438,0.28125 -0.35937,0.15625 -0.5625,0.46875 -0.1875,0.29688 -0.1875,0.65625 0,0.5625 0.42188,0.9375 0.4375,0.375 1.25,0.375 0.8125,0 1.4375,-0.34375 0.64062,-0.35937 0.9375,-0.98437 0.23437,-0.46875 0.23437,-1.40625 l 0,-0.51563 z m 3.58594,4.17188 0,-8.29688 1.26563,0 0,1.25 q 0.48437,-0.875 0.89062,-1.15625 0.40625,-0.28125 0.90625,-0.28125 0.70313,0 1.4375,0.45313 l -0.48437,1.29687 q -0.51563,-0.29687 -1.03125,-0.29687 -0.45313,0 -0.82813,0.28125 -0.35937,0.26562 -0.51562,0.76562 -0.23438,0.75 -0.23438,1.64063 l 0,4.34375 -1.40625,0 z m 4.78125,-2.48438 1.39063,-0.21875 q 0.10937,0.84375 0.64062,1.29688 0.54688,0.4375 1.5,0.4375 0.96875,0 1.4375,-0.39063 0.46875,-0.40625 0.46875,-0.9375 0,-0.46875 -0.40625,-0.75 -0.29687,-0.1875 -1.4375,-0.46875 -1.54687,-0.39062 -2.15625,-0.67187 -0.59375,-0.29688 -0.90625,-0.79688 -0.29687,-0.5 -0.29687,-1.10937 0,-0.5625 0.25,-1.03125 0.25,-0.46875 0.6875,-0.78125 0.32812,-0.25 0.89062,-0.40625 0.57813,-0.17188 1.21875,-0.17188 0.98438,0 1.71875,0.28125 0.73438,0.28125 1.07813,0.76563 0.35937,0.46875 0.5,1.28125 l -1.375,0.1875 q -0.0937,-0.64063 -0.54688,-1 -0.45312,-0.35938 -1.26562,-0.35938 -0.96875,0 -1.39063,0.32813 -0.40625,0.3125 -0.40625,0.73437 0,0.28125 0.17188,0.5 0.17187,0.21875 0.53125,0.375 0.21875,0.0781 1.25,0.35938 1.48437,0.39062 2.07812,0.65625 0.59375,0.25 0.92188,0.73437 0.34375,0.48438 0.34375,1.20313 0,0.70312 -0.42188,1.32812 -0.40625,0.60938 -1.1875,0.95313 -0.76562,0.34375 -1.73437,0.34375 -1.625,0 -2.46875,-0.67188 -0.84375,-0.67187 -1.07813,-2 z m 14.23438,-0.1875 1.45312,0.17188 q -0.34375,1.28125 -1.28125,1.98437 -0.92187,0.70313 -2.35937,0.70313 -1.82813,0 -2.89063,-1.125 -1.0625,-1.125 -1.0625,-3.14063 0,-2.09375 1.07813,-3.25 1.07812,-1.15625 2.79687,-1.15625 1.65625,0 2.70313,1.14063 1.0625,1.125 1.0625,3.17187 0,0.125 0,0.375 l -6.1875,0 q 0.0781,1.375 0.76562,2.10938 0.70313,0.71875 1.73438,0.71875 0.78125,0 1.32812,-0.40625 0.54688,-0.40625 0.85938,-1.29688 z m -4.60938,-2.28125 4.625,0 q -0.0937,-1.04687 -0.53125,-1.5625 -0.67187,-0.8125 -1.73437,-0.8125 -0.96875,0 -1.64063,0.65625 -0.65625,0.64063 -0.71875,1.71875 z m 7.82031,4.95313 0,-8.29688 1.26563,0 0,1.25 q 0.48437,-0.875 0.89062,-1.15625 0.40625,-0.28125 0.90625,-0.28125 0.70313,0 1.4375,0.45313 l -0.48437,1.29687 q -0.51563,-0.29687 -1.03125,-0.29687 -0.45313,0 -0.82813,0.28125 -0.35937,0.26562 -0.51562,0.76562 -0.23438,0.75 -0.23438,1.64063 l 0,4.34375 -1.40625,0 z"
       id="path39"
       inkscape:connector-curvature="0"
       style="fill:#000000;fill-rule:nonzero;stroke:none" />
    <path
       d="m 423.26773,441.16533 0.0945,23.46456"
       id="path43"
       inkscape:connector-curvature="0"
       style="fill:none;stroke:#000000;stroke-width:2;stroke-linecap:butt;stroke-linejoin:round" />
    <path
       d="m 423.37796,464.62989 104,0"
       id="path47"
       inkscape:connector-curvature="0"
       style="fill:none;stroke:#000000;stroke-width:2;stroke-linecap:butt;stroke-linejoin:round" />
    <path
       d="m 527.36221,464.62989 -0.0945,-23.46456"
       id="path51"
       inkscape:connector-curvature="0"
       style="fill:none;stroke:#000000;stroke-width:2;stroke-linecap:butt;stroke-linejoin:round" />
    <path
       d="m 103.37796,496.09446 63.55905,0 0,40.53543 -63.55905,0 z"
       id="path55"
       inkscape:connector-curvature="0"
       style="fill:#ffffff;stroke:#000000;stroke-width:1;stroke-linecap:butt;stroke-linejoin:round" />
    <path
       d="m 121.52858,509.75071 0,-1.625 1.40625,0 0,1.625 -1.40625,0 z m -1.78125,13.04687 0.26563,-1.1875 q 0.42187,0.10938 0.67187,0.10938 0.42188,0 0.625,-0.29688 0.21875,-0.28125 0.21875,-1.42187 l 0,-8.71875 1.40625,0 0,8.75 q 0,1.53125 -0.39062,2.14062 -0.51563,0.78125 -1.6875,0.78125 -0.57813,0 -1.10938,-0.15625 z m 4.78906,-5.70312 1.39063,-0.21875 q 0.10937,0.84375 0.64062,1.29687 0.54688,0.4375 1.5,0.4375 0.96875,0 1.4375,-0.39062 0.46875,-0.40625 0.46875,-0.9375 0,-0.46875 -0.40625,-0.75 -0.29687,-0.1875 -1.4375,-0.46875 -1.54687,-0.39063 -2.15625,-0.67188 -0.59375,-0.29687 -0.90625,-0.79687 -0.29687,-0.5 -0.29687,-1.10938 0,-0.5625 0.25,-1.03125 0.25,-0.46875 0.6875,-0.78125 0.32812,-0.25 0.89062,-0.40625 0.57813,-0.17187 1.21875,-0.17187 0.98438,0 1.71875,0.28125 0.73438,0.28125 1.07813,0.76562 0.35937,0.46875 0.5,1.28125 l -1.375,0.1875 q -0.0937,-0.64062 -0.54688,-1 -0.45312,-0.35937 -1.26562,-0.35937 -0.96875,0 -1.39063,0.32812 -0.40625,0.3125 -0.40625,0.73438 0,0.28125 0.17188,0.5 0.17187,0.21875 0.53125,0.375 0.21875,0.0781 1.25,0.35937 1.48437,0.39063 2.07812,0.65625 0.59375,0.25 0.92188,0.73438 0.34375,0.48437 0.34375,1.20312 0,0.70313 -0.42188,1.32813 -0.40625,0.60937 -1.1875,0.95312 -0.76562,0.34375 -1.73437,0.34375 -1.625,0 -2.46875,-0.67187 -0.84375,-0.67188 -1.07813,-2 z m 8.03125,-1.67188 q 0,-2.29687 1.28125,-3.40625 1.07813,-0.92187 2.60938,-0.92187 1.71875,0 2.79687,1.125 1.09375,1.10937 1.09375,3.09375 0,1.59375 -0.48437,2.51562 -0.48438,0.92188 -1.40625,1.4375 -0.90625,0.5 -2,0.5 -1.73438,0 -2.8125,-1.10937 -1.07813,-1.125 -1.07813,-3.23438 z m 1.45313,0 q 0,1.59375 0.6875,2.39063 0.70312,0.79687 1.75,0.79687 1.04687,0 1.73437,-0.79687 0.70313,-0.79688 0.70313,-2.4375 0,-1.53125 -0.70313,-2.32813 -0.6875,-0.79687 -1.73437,-0.79687 -1.04688,0 -1.75,0.79687 -0.6875,0.78125 -0.6875,2.375 z m 7.97656,4.15625 0,-8.29687 1.26563,0 0,1.17187 q 0.90625,-1.35937 2.64062,-1.35937 0.75,0 1.375,0.26562 0.625,0.26563 0.9375,0.70313 0.3125,0.4375 0.4375,1.04687 0.0781,0.39063 0.0781,1.35938 l 0,5.10937 -1.40625,0 0,-5.04687 q 0,-0.85938 -0.17188,-1.28125 -0.15625,-0.4375 -0.57812,-0.6875 -0.40625,-0.25 -0.96875,-0.25 -0.90625,0 -1.5625,0.57812 -0.64063,0.5625 -0.64063,2.15625 l 0,4.53125 -1.40625,0 z"
       id="path57"
       inkscape:connector-curvature="0"
       style="fill:#000000;fill-rule:nonzero;stroke:none" />
    <path
       d="m 194.84253,519.66564 9.07619,-3.30347 -9.07619,-3.30346 z"
       id="path63"
       inkscape:connector-curvature="0"
       style="fill:#000000;fill-rule:evenodd;stroke:#000000;stroke-width:2;stroke-linecap:butt" />
    <path
       d="m 195.67525,516.36218 -17.12458,0"
       id="path67"
       inkscape:connector-curvature="0"
       style="fill:none;stroke:#000000;stroke-width:1.56673241;stroke-linecap:butt;stroke-linejoin:round" />
    <path
       d="m 178.93701,513.05871 -9.07619,3.30347 9.07619,3.30346 z"
       id="path69"
       inkscape:connector-curvature="0"
       style="fill:#000000;fill-rule:evenodd;stroke:#000000;stroke-width:2;stroke-linecap:butt" />
    <path
       d="m 559.37796,496.09446 87.24408,0 0,40.53543 -87.24408,0 z"
       id="path73"
       inkscape:connector-curvature="0"
       style="fill:#ffffff;stroke:#000000;stroke-width:1;stroke-linecap:butt;stroke-linejoin:round" />
    <path
       d="m 574.25006,509.75071 0,-1.625 1.40625,0 0,1.625 -1.40625,0 z m -1.78125,13.04687 0.26563,-1.1875 q 0.42187,0.10938 0.67187,0.10938 0.42188,0 0.625,-0.29688 0.21875,-0.28125 0.21875,-1.42187 l 0,-8.71875 1.40625,0 0,8.75 q 0,1.53125 -0.39062,2.14062 -0.51563,0.78125 -1.6875,0.78125 -0.57813,0 -1.10938,-0.15625 z m 10.75781,-4.25 q -0.78125,0.67188 -1.5,0.95313 -0.71875,0.26562 -1.54687,0.26562 -1.375,0 -2.10938,-0.67187 -0.73437,-0.67188 -0.73437,-1.70313 0,-0.60937 0.28125,-1.10937 0.28125,-0.51563 0.71875,-0.8125 0.45312,-0.3125 1.01562,-0.46875 0.42188,-0.10938 1.25,-0.20313 1.70313,-0.20312 2.51563,-0.48437 0,-0.29688 0,-0.375 0,-0.85938 -0.39063,-1.20313 -0.54687,-0.48437 -1.60937,-0.48437 -0.98438,0 -1.46875,0.35937 -0.46875,0.34375 -0.6875,1.21875 l -1.375,-0.1875 q 0.1875,-0.875 0.60937,-1.42187 0.4375,-0.54688 1.25,-0.82813 0.8125,-0.29687 1.875,-0.29687 1.0625,0 1.71875,0.25 0.67188,0.25 0.98438,0.625 0.3125,0.375 0.4375,0.95312 0.0781,0.35938 0.0781,1.29688 l 0,1.875 q 0,1.96875 0.0781,2.48437 0.0937,0.51563 0.35937,1 l -1.46875,0 q -0.21875,-0.4375 -0.28125,-1.03125 z m -0.10937,-3.14062 q -0.76563,0.3125 -2.29688,0.53125 -0.875,0.125 -1.23437,0.28125 -0.35938,0.15625 -0.5625,0.46875 -0.1875,0.29687 -0.1875,0.65625 0,0.5625 0.42187,0.9375 0.4375,0.375 1.25,0.375 0.8125,0 1.4375,-0.34375 0.64063,-0.35938 0.9375,-0.98438 0.23438,-0.46875 0.23438,-1.40625 l 0,-0.51562 z m 5.89844,4.17187 -3.15625,-8.29687 1.48437,0 1.78125,4.96875 q 0.29688,0.79687 0.53125,1.67187 0.1875,-0.65625 0.53125,-1.57812 l 1.84375,-5.0625 1.4375,0 -3.14062,8.29687 -1.3125,0 z m 11.10937,-1.03125 q -0.78125,0.67188 -1.5,0.95313 -0.71875,0.26562 -1.54687,0.26562 -1.375,0 -2.10938,-0.67187 -0.73437,-0.67188 -0.73437,-1.70313 0,-0.60937 0.28125,-1.10937 0.28125,-0.51563 0.71875,-0.8125 0.45312,-0.3125 1.01562,-0.46875 0.42188,-0.10938 1.25,-0.20313 1.70313,-0.20312 2.51563,-0.48437 0,-0.29688 0,-0.375 0,-0.85938 -0.39063,-1.20313 -0.54687,-0.48437 -1.60937,-0.48437 -0.98438,0 -1.46875,0.35937 -0.46875,0.34375 -0.6875,1.21875 l -1.375,-0.1875 q 0.1875,-0.875 0.60937,-1.42187 0.4375,-0.54688 1.25,-0.82813 0.8125,-0.29687 1.875,-0.29687 1.0625,0 1.71875,0.25 0.67188,0.25 0.98438,0.625 0.3125,0.375 0.4375,0.95312 0.0781,0.35938 0.0781,1.29688 l 0,1.875 q 0,1.96875 0.0781,2.48437 0.0937,0.51563 0.35937,1 l -1.46875,0 q -0.21875,-0.4375 -0.28125,-1.03125 z m -0.10937,-3.14062 q -0.76563,0.3125 -2.29688,0.53125 -0.875,0.125 -1.23437,0.28125 -0.35938,0.15625 -0.5625,0.46875 -0.1875,0.29687 -0.1875,0.65625 0,0.5625 0.42187,0.9375 0.4375,0.375 1.25,0.375 0.8125,0 1.4375,-0.34375 0.64063,-0.35938 0.9375,-0.98438 0.23438,-0.46875 0.23438,-1.40625 l 0,-0.51562 z m 7.51562,0.0156 q 0,-2.29687 1.28125,-3.40625 1.07813,-0.92187 2.60938,-0.92187 1.71875,0 2.79687,1.125 1.09375,1.10937 1.09375,3.09375 0,1.59375 -0.48437,2.51562 -0.48438,0.92188 -1.40625,1.4375 -0.90625,0.5 -2,0.5 -1.73438,0 -2.8125,-1.10937 -1.07813,-1.125 -1.07813,-3.23438 z m 1.45313,0 q 0,1.59375 0.6875,2.39063 0.70312,0.79687 1.75,0.79687 1.04687,0 1.73437,-0.79687 0.70313,-0.79688 0.70313,-2.4375 0,-1.53125 -0.70313,-2.32813 -0.6875,-0.79687 -1.73437,-0.79687 -1.04688,0 -1.75,0.79687 -0.6875,0.78125 -0.6875,2.375 z m 9.27343,4.15625 -1.3125,0 0,-11.45312 1.40625,0 0,4.07812 q 0.89063,-1.10937 2.28125,-1.10937 0.76563,0 1.4375,0.3125 0.6875,0.29687 1.125,0.85937 0.45313,0.5625 0.70313,1.35938 0.25,0.78125 0.25,1.67187 0,2.14063 -1.0625,3.3125 -1.04688,1.15625 -2.53125,1.15625 -1.46875,0 -2.29688,-1.23437 l 0,1.04687 z m -0.0156,-4.21875 q 0,1.5 0.40625,2.15625 0.65625,1.09375 1.79687,1.09375 0.92188,0 1.59375,-0.79687 0.67188,-0.8125 0.67188,-2.39063 0,-1.625 -0.65625,-2.39062 -0.64063,-0.78125 -1.54688,-0.78125 -0.92187,0 -1.59375,0.79687 -0.67187,0.79688 -0.67187,2.3125 z m 7.60156,-5.60937 0,-1.625 1.40625,0 0,1.625 -1.40625,0 z m -1.78125,13.04687 0.26563,-1.1875 q 0.42187,0.10938 0.67187,0.10938 0.42188,0 0.625,-0.29688 0.21875,-0.28125 0.21875,-1.42187 l 0,-8.71875 1.40625,0 0,8.75 q 0,1.53125 -0.39062,2.14062 -0.51563,0.78125 -1.6875,0.78125 -0.57813,0 -1.10938,-0.15625 z m 5.74219,-3.21875 0,-1.60937 1.60937,0 0,1.60937 -1.60937,0 z"
       id="path75"
       inkscape:connector-curvature="0"
       style="fill:#000000;fill-rule:nonzero;stroke:none" />
    <path
       d="m 546.76609,516.36218 -16.56789,0"
       id="path79"
       inkscape:connector-curvature="0"
       style="fill:none;stroke:#000000;stroke-width:1.51809871;stroke-linecap:butt;stroke-linejoin:round" />
    <path
       d="m 530.62204,513.05871 -9.07617,3.30347 9.07617,3.30346 z"
       id="path81"
       inkscape:connector-curvature="0"
       style="fill:#000000;fill-rule:evenodd;stroke:#000000;stroke-width:2;stroke-linecap:butt" />
    <path
       d="m 547.37796,519.66564 9.07617,-3.30347 -9.07617,-3.30346 z"
       id="path87"
       inkscape:connector-curvature="0"
       style="fill:#000000;fill-rule:evenodd;stroke:#000000;stroke-width:2;stroke-linecap:butt" />
    <path
       d="m 311.37796,623.55903 112.94488,0 0,40.53543 -112.94488,0 z"
       id="path91"
       inkscape:connector-curvature="0"
       style="fill:#ffffff;stroke:#000000;stroke-width:1;stroke-linecap:butt;stroke-linejoin:round" />
    <path
       d="m 342.77618,647.04341 0,-11.45313 1.51562,0 0,10.09375 5.64063,0 0,1.35938 -7.15625,0 z m 14.22656,0 0,-1.21875 q -0.96875,1.40625 -2.64062,1.40625 -0.73438,0 -1.375,-0.28125 -0.625,-0.28125 -0.9375,-0.70313 -0.3125,-0.4375 -0.4375,-1.04687 -0.0781,-0.42188 -0.0781,-1.3125 l 0,-5.14063 1.40625,0 0,4.59375 q 0,1.10938 0.0781,1.48438 0.14062,0.5625 0.5625,0.875 0.4375,0.3125 1.0625,0.3125 0.64062,0 1.1875,-0.3125 0.5625,-0.32813 0.78125,-0.89063 0.23437,-0.5625 0.23437,-1.625 l 0,-4.4375 1.40625,0 0,8.29688 -1.25,0 z m 8.86719,-3.04688 1.39062,0.1875 q -0.23437,1.42188 -1.17187,2.23438 -0.92188,0.8125 -2.28125,0.8125 -1.70313,0 -2.75,-1.10938 -1.03125,-1.125 -1.03125,-3.20312 0,-1.34375 0.4375,-2.34375 0.45312,-1.01563 1.35937,-1.51563 0.92188,-0.5 1.98438,-0.5 1.35937,0 2.21875,0.6875 0.85937,0.67188 1.09375,1.9375 l -1.35938,0.20313 q -0.20312,-0.82813 -0.70312,-1.25 -0.48438,-0.42188 -1.1875,-0.42188 -1.0625,0 -1.73438,0.76563 -0.65625,0.75 -0.65625,2.40625 0,1.67187 0.64063,2.4375 0.64062,0.75 1.67187,0.75 0.82813,0 1.375,-0.5 0.5625,-0.51563 0.70313,-1.57813 z m 8.26562,0.375 1.45313,0.17188 q -0.34375,1.28125 -1.28125,1.98437 -0.92188,0.70313 -2.35938,0.70313 -1.82812,0 -2.89062,-1.125 -1.0625,-1.125 -1.0625,-3.14063 0,-2.09375 1.07812,-3.25 1.07813,-1.15625 2.79688,-1.15625 1.65625,0 2.70312,1.14063 1.0625,1.125 1.0625,3.17187 0,0.125 0,0.375 l -6.1875,0 q 0.0781,1.375 0.76563,2.10938 0.70312,0.71875 1.73437,0.71875 0.78125,0 1.32813,-0.40625 0.54687,-0.40625 0.85937,-1.29688 z m -4.60937,-2.28125 4.625,0 q -0.0937,-1.04687 -0.53125,-1.5625 -0.67188,-0.8125 -1.73438,-0.8125 -0.96875,0 -1.64062,0.65625 -0.65625,0.64063 -0.71875,1.71875 z m 7.83594,4.95313 0,-8.29688 1.26562,0 0,1.17188 q 0.90625,-1.35938 2.64063,-1.35938 0.75,0 1.375,0.26563 0.625,0.26562 0.9375,0.70312 0.3125,0.4375 0.4375,1.04688 0.0781,0.39062 0.0781,1.35937 l 0,5.10938 -1.40625,0 0,-5.04688 q 0,-0.85937 -0.17187,-1.28125 -0.15625,-0.4375 -0.57813,-0.6875 -0.40625,-0.25 -0.96875,-0.25 -0.90625,0 -1.5625,0.57813 -0.64062,0.5625 -0.64062,2.15625 l 0,4.53125 -1.40625,0 z m 14.57031,-2.67188 1.45312,0.17188 q -0.34375,1.28125 -1.28125,1.98437 -0.92187,0.70313 -2.35937,0.70313 -1.82813,0 -2.89063,-1.125 -1.0625,-1.125 -1.0625,-3.14063 0,-2.09375 1.07813,-3.25 1.07812,-1.15625 2.79687,-1.15625 1.65625,0 2.70313,1.14063 1.0625,1.125 1.0625,3.17187 0,0.125 0,0.375 l -6.1875,0 q 0.0781,1.375 0.76562,2.10938 0.70313,0.71875 1.73438,0.71875 0.78125,0 1.32812,-0.40625 0.54688,-0.40625 0.85938,-1.29688 z m -4.60938,-2.28125 4.625,0 q -0.0937,-1.04687 -0.53125,-1.5625 -0.67187,-0.8125 -1.73437,-0.8125 -0.96875,0 -1.64063,0.65625 -0.65625,0.64063 -0.71875,1.71875 z"
       id="path93"
       inkscape:connector-curvature="0"
       style="fill:#000000;fill-rule:nonzero;stroke:none" />
    <path
       d="m 471.37796,496.28325 0,-31.66386"
       id="path97"
       inkscape:connector-curvature="0"
       style="fill:none;stroke:#000000;stroke-width:1.9894681;stroke-linecap:butt;stroke-linejoin:round" />
    <path
       d="m 250.88977,441.16533 -0.4252,54.92913"
       id="path101"
       inkscape:connector-curvature="0"
       style="fill:none;stroke:#000000;stroke-width:2;stroke-linecap:butt;stroke-linejoin:round" />
    <path
       d="m 247.37796,536.62989 -0.44095,54.92914"
       id="path105"
       inkscape:connector-curvature="0"
       style="fill:none;stroke:#000000;stroke-width:2;stroke-linecap:butt;stroke-linejoin:round" />
    <path
       d="m 471.81891,536.62989 -0.44095,54.92914"
       id="path109"
       inkscape:connector-curvature="0"
       style="fill:none;stroke:#000000;stroke-width:2;stroke-linecap:butt;stroke-linejoin:round" />
    <path
       d="m 367.37796,591.55903 -0.44095,32"
       id="path113"
       inkscape:connector-curvature="0"
       style="fill:none;stroke:#000000;stroke-width:2;stroke-linecap:butt;stroke-linejoin:round" />
    <path
       d="m 479.37796,623.55903 128.09448,0 0,40.53543 -128.09448,0 z"
       id="path117"
       inkscape:connector-curvature="0"
       style="fill:#ffffff;stroke:#000000;stroke-width:1;stroke-linecap:butt;stroke-linejoin:round" />
    <path
       d="m 496.63223,647.04341 0,-11.45313 4.32813,0 q 1.14062,0 1.73437,0.10938 0.84375,0.14062 1.40625,0.53125 0.57813,0.39062 0.92188,1.10937 0.35937,0.70313 0.35937,1.5625 0,1.45313 -0.9375,2.46875 -0.92187,1.01563 -3.35937,1.01563 l -2.9375,0 0,4.65625 -1.51563,0 z m 1.51563,-6.01563 2.96875,0 q 1.46875,0 2.07812,-0.54687 0.625,-0.54688 0.625,-1.53125 0,-0.71875 -0.375,-1.23438 -0.35937,-0.51562 -0.95312,-0.67187 -0.375,-0.10938 -1.40625,-0.10938 l -2.9375,0 0,4.09375 z m 14.39062,4.98438 q -0.78125,0.67187 -1.5,0.95312 -0.71875,0.26563 -1.54687,0.26563 -1.375,0 -2.10938,-0.67188 -0.73437,-0.67187 -0.73437,-1.70312 0,-0.60938 0.28125,-1.10938 0.28125,-0.51562 0.71875,-0.8125 0.45312,-0.3125 1.01562,-0.46875 0.42188,-0.10937 1.25,-0.20312 1.70313,-0.20313 2.51563,-0.48438 0,-0.29687 0,-0.375 0,-0.85937 -0.39063,-1.20312 -0.54687,-0.48438 -1.60937,-0.48438 -0.98438,0 -1.46875,0.35938 -0.46875,0.34375 -0.6875,1.21875 l -1.375,-0.1875 q 0.1875,-0.875 0.60937,-1.42188 0.4375,-0.54687 1.25,-0.82812 0.8125,-0.29688 1.875,-0.29688 1.0625,0 1.71875,0.25 0.67188,0.25 0.98438,0.625 0.3125,0.375 0.4375,0.95313 0.0781,0.35937 0.0781,1.29687 l 0,1.875 q 0,1.96875 0.0781,2.48438 0.0937,0.51562 0.35937,1 l -1.46875,0 q -0.21875,-0.4375 -0.28125,-1.03125 z m -0.10937,-3.14063 q -0.76563,0.3125 -2.29688,0.53125 -0.875,0.125 -1.23437,0.28125 -0.35938,0.15625 -0.5625,0.46875 -0.1875,0.29688 -0.1875,0.65625 0,0.5625 0.42187,0.9375 0.4375,0.375 1.25,0.375 0.8125,0 1.4375,-0.34375 0.64063,-0.35937 0.9375,-0.98437 0.23438,-0.46875 0.23438,-1.40625 l 0,-0.51563 z m 6.66406,2.90625 0.20312,1.25 q -0.59375,0.125 -1.0625,0.125 -0.76562,0 -1.1875,-0.23437 -0.42187,-0.25 -0.59375,-0.64063 -0.17187,-0.40625 -0.17187,-1.67187 l 0,-4.76563 -1.03125,0 0,-1.09375 1.03125,0 0,-2.0625 1.40625,-0.84375 0,2.90625 1.40625,0 0,1.09375 -1.40625,0 0,4.84375 q 0,0.60938 0.0625,0.78125 0.0781,0.17188 0.25,0.28125 0.17187,0.0937 0.48437,0.0937 0.23438,0 0.60938,-0.0625 z m 1.38281,-8.57812 0,-1.60938 1.40625,0 0,1.60938 -1.40625,0 z m 0,9.84375 0,-8.29688 1.40625,0 0,8.29688 -1.40625,0 z m 9.22656,-2.67188 1.45313,0.17188 q -0.34375,1.28125 -1.28125,1.98437 -0.92188,0.70313 -2.35938,0.70313 -1.82812,0 -2.89062,-1.125 -1.0625,-1.125 -1.0625,-3.14063 0,-2.09375 1.07812,-3.25 1.07813,-1.15625 2.79688,-1.15625 1.65625,0 2.70312,1.14063 1.0625,1.125 1.0625,3.17187 0,0.125 0,0.375 l -6.1875,0 q 0.0781,1.375 0.76563,2.10938 0.70312,0.71875 1.73437,0.71875 0.78125,0 1.32813,-0.40625 0.54687,-0.40625 0.85937,-1.29688 z m -4.60937,-2.28125 4.625,0 q -0.0937,-1.04687 -0.53125,-1.5625 -0.67188,-0.8125 -1.73438,-0.8125 -0.96875,0 -1.64062,0.65625 -0.65625,0.64063 -0.71875,1.71875 z m 7.83594,4.95313 0,-8.29688 1.26562,0 0,1.17188 q 0.90625,-1.35938 2.64063,-1.35938 0.75,0 1.375,0.26563 0.625,0.26562 0.9375,0.70312 0.3125,0.4375 0.4375,1.04688 0.0781,0.39062 0.0781,1.35937 l 0,5.10938 -1.40625,0 0,-5.04688 q 0,-0.85937 -0.17187,-1.28125 -0.15625,-0.4375 -0.57813,-0.6875 -0.40625,-0.25 -0.96875,-0.25 -0.90625,0 -1.5625,0.57813 -0.64062,0.5625 -0.64062,2.15625 l 0,4.53125 -1.40625,0 z m 11.96093,-1.26563 0.20313,1.25 q -0.59375,0.125 -1.0625,0.125 -0.76563,0 -1.1875,-0.23437 -0.42188,-0.25 -0.59375,-0.64063 -0.17188,-0.40625 -0.17188,-1.67187 l 0,-4.76563 -1.03125,0 0,-1.09375 1.03125,0 0,-2.0625 1.40625,-0.84375 0,2.90625 1.40625,0 0,1.09375 -1.40625,0 0,4.84375 q 0,0.60938 0.0625,0.78125 0.0781,0.17188 0.25,0.28125 0.17188,0.0937 0.48438,0.0937 0.23437,0 0.60937,-0.0625 z m 11.23438,-1.78125 1.39062,0.1875 q -0.23437,1.42188 -1.17187,2.23438 -0.92188,0.8125 -2.28125,0.8125 -1.70313,0 -2.75,-1.10938 -1.03125,-1.125 -1.03125,-3.20312 0,-1.34375 0.4375,-2.34375 0.45312,-1.01563 1.35937,-1.51563 0.92188,-0.5 1.98438,-0.5 1.35937,0 2.21875,0.6875 0.85937,0.67188 1.09375,1.9375 l -1.35938,0.20313 q -0.20312,-0.82813 -0.70312,-1.25 -0.48438,-0.42188 -1.1875,-0.42188 -1.0625,0 -1.73438,0.76563 -0.65625,0.75 -0.65625,2.40625 0,1.67187 0.64063,2.4375 0.64062,0.75 1.67187,0.75 0.82813,0 1.375,-0.5 0.5625,-0.51563 0.70313,-1.57813 z m 8,2.01563 q -0.78125,0.67187 -1.5,0.95312 -0.71875,0.26563 -1.54688,0.26563 -1.375,0 -2.10937,-0.67188 -0.73438,-0.67187 -0.73438,-1.70312 0,-0.60938 0.28125,-1.10938 0.28125,-0.51562 0.71875,-0.8125 0.45313,-0.3125 1.01563,-0.46875 0.42187,-0.10937 1.25,-0.20312 1.70312,-0.20313 2.51562,-0.48438 0,-0.29687 0,-0.375 0,-0.85937 -0.39062,-1.20312 -0.54688,-0.48438 -1.60938,-0.48438 -0.98437,0 -1.46875,0.35938 -0.46875,0.34375 -0.6875,1.21875 l -1.375,-0.1875 q 0.1875,-0.875 0.60938,-1.42188 0.4375,-0.54687 1.25,-0.82812 0.8125,-0.29688 1.875,-0.29688 1.0625,0 1.71875,0.25 0.67187,0.25 0.98437,0.625 0.3125,0.375 0.4375,0.95313 0.0781,0.35937 0.0781,1.29687 l 0,1.875 q 0,1.96875 0.0781,2.48438 0.0937,0.51562 0.35938,1 l -1.46875,0 q -0.21875,-0.4375 -0.28125,-1.03125 z m -0.10938,-3.14063 q -0.76562,0.3125 -2.29687,0.53125 -0.875,0.125 -1.23438,0.28125 -0.35937,0.15625 -0.5625,0.46875 -0.1875,0.29688 -0.1875,0.65625 0,0.5625 0.42188,0.9375 0.4375,0.375 1.25,0.375 0.8125,0 1.4375,-0.34375 0.64062,-0.35937 0.9375,-0.98437 0.23437,-0.46875 0.23437,-1.40625 l 0,-0.51563 z m 3.03907,1.6875 1.39062,-0.21875 q 0.10938,0.84375 0.64063,1.29688 0.54687,0.4375 1.5,0.4375 0.96875,0 1.4375,-0.39063 0.46875,-0.40625 0.46875,-0.9375 0,-0.46875 -0.40625,-0.75 -0.29688,-0.1875 -1.4375,-0.46875 -1.54688,-0.39062 -2.15625,-0.67187 -0.59375,-0.29688 -0.90625,-0.79688 -0.29688,-0.5 -0.29688,-1.10937 0,-0.5625 0.25,-1.03125 0.25,-0.46875 0.6875,-0.78125 0.32813,-0.25 0.89063,-0.40625 0.57812,-0.17188 1.21875,-0.17188 0.98437,0 1.71875,0.28125 0.73437,0.28125 1.07812,0.76563 0.35938,0.46875 0.5,1.28125 l -1.375,0.1875 q -0.0937,-0.64063 -0.54687,-1 -0.45313,-0.35938 -1.26563,-0.35938 -0.96875,0 -1.39062,0.32813 -0.40625,0.3125 -0.40625,0.73437 0,0.28125 0.17187,0.5 0.17188,0.21875 0.53125,0.375 0.21875,0.0781 1.25,0.35938 1.48438,0.39062 2.07813,0.65625 0.59375,0.25 0.92187,0.73437 0.34375,0.48438 0.34375,1.20313 0,0.70312 -0.42187,1.32812 -0.40625,0.60938 -1.1875,0.95313 -0.76563,0.34375 -1.73438,0.34375 -1.625,0 -2.46875,-0.67188 -0.84375,-0.67187 -1.07812,-2 z m 14.23437,-0.1875 1.45313,0.17188 q -0.34375,1.28125 -1.28125,1.98437 -0.92188,0.70313 -2.35938,0.70313 -1.82812,0 -2.89062,-1.125 -1.0625,-1.125 -1.0625,-3.14063 0,-2.09375 1.07812,-3.25 1.07813,-1.15625 2.79688,-1.15625 1.65625,0 2.70312,1.14063 1.0625,1.125 1.0625,3.17187 0,0.125 0,0.375 l -6.1875,0 q 0.0781,1.375 0.76563,2.10938 0.70312,0.71875 1.73437,0.71875 0.78125,0 1.32813,-0.40625 0.54687,-0.40625 0.85937,-1.29688 z m -4.60937,-2.28125 4.625,0 q -0.0937,-1.04687 -0.53125,-1.5625 -0.67188,-0.8125 -1.73438,-0.8125 -0.96875,0 -1.64062,0.65625 -0.65625,0.64063 -0.71875,1.71875 z m 7.27343,2.46875 1.39063,-0.21875 q 0.10937,0.84375 0.64062,1.29688 0.54688,0.4375 1.5,0.4375 0.96875,0 1.4375,-0.39063 0.46875,-0.40625 0.46875,-0.9375 0,-0.46875 -0.40625,-0.75 -0.29687,-0.1875 -1.4375,-0.46875 -1.54687,-0.39062 -2.15625,-0.67187 -0.59375,-0.29688 -0.90625,-0.79688 -0.29687,-0.5 -0.29687,-1.10937 0,-0.5625 0.25,-1.03125 0.25,-0.46875 0.6875,-0.78125 0.32812,-0.25 0.89062,-0.40625 0.57813,-0.17188 1.21875,-0.17188 0.98438,0 1.71875,0.28125 0.73438,0.28125 1.07813,0.76563 0.35937,0.46875 0.5,1.28125 l -1.375,0.1875 q -0.0937,-0.64063 -0.54688,-1 -0.45312,-0.35938 -1.26562,-0.35938 -0.96875,0 -1.39063,0.32813 -0.40625,0.3125 -0.40625,0.73437 0,0.28125 0.17188,0.5 0.17187,0.21875 0.53125,0.375 0.21875,0.0781 1.25,0.35938 1.48437,0.39062 2.07812,0.65625 0.59375,0.25 0.92188,0.73437 0.34375,0.48438 0.34375,1.20313 0,0.70312 -0.42188,1.32812 -0.40625,0.60938 -1.1875,0.95313 -0.76562,0.34375 -1.73437,0.34375 -1.625,0 -2.46875,-0.67188 -0.84375,-0.67187 -1.07813,-2 z"
       id="path119"
       inkscape:connector-curvature="0"
       style="fill:#000000;fill-rule:nonzero;stroke:none" />
    <path
       d="m 479.37796,643.82676 -55.05512,0"
       id="path123"
       inkscape:connector-curvature="0"
       style="fill:none;stroke:#000000;stroke-width:2;stroke-linecap:butt;stroke-linejoin:round" />
    <path
       d="m 246.08662,591.55903 225.29134,0"
       id="path127"
       inkscape:connector-curvature="0"
       style="fill:none;stroke:#000000;stroke-width:2;stroke-linecap:butt;stroke-linejoin:round" />
  </g>
</svg>
